<svg width="45" height="60" viewBox="0 0 45 60" fill="none" xmlns="http://www.w3.org/2000/svg">
<g id="icn 7">
<g id="4">
<path id="Rectangle 3" fill-rule="evenodd" clip-rule="evenodd" d="M26.9696 24.0504L27.6721 24.7288L28.3735 24.0024L31.2446 26.7749L30.5431 27.5013L31.3125 28.2443L16.6842 43.3923L12.451 44.7142C11.6986 44.9492 10.9828 44.2618 11.1871 43.5005L12.3413 39.1984L26.9696 24.0504Z" fill="white"/>
<path id="Rectangle" d="M1 7C1 5.34314 2.34315 4 4 4H40C41.6569 4 43 5.34315 43 7V49.2397L39.0132 54.7517C38.7607 55.1008 38.4359 55.3914 38.061 55.6038L32.0655 59H4C2.34315 59 1 57.6569 1 56V7Z" stroke="#030303" stroke-width="2"/>
<path id="Combined Shape" fill-rule="evenodd" clip-rule="evenodd" d="M30.9863 59.9999V47.9854H44.0632V49.0582C43.0352 52.0249 41.6674 54.4493 40.0069 56.0936C38.64 57.4472 33.4337 59.9999 32.1343 59.9999C30.8349 59.9999 30.9863 59.9999 30.9863 59.9999Z" fill="white"/>
<rect id="Path" x="11" y="21" width="12" height="1" rx="0.5" fill="#030303"/>
<rect id="Path_2" x="11" y="16" width="22" height="1" rx="0.5" fill="#030303"/>
<rect id="Path_3" x="11" y="11" width="22" height="1" rx="0.5" fill="#030303"/>
<rect id="Rectangle 2" x="12" width="20" height="6" rx="2" fill="#030303"/>
</g>
</g>
</svg>
