<svg width="58" height="48" viewBox="0 0 58 48" fill="none" xmlns="http://www.w3.org/2000/svg">
<g id="icn 3">
<g id="icn ">
<rect id="Rectangle 3" x="1" y="4.83997" width="56" height="31.6" rx="3" stroke="#FA3F40" stroke-width="2"/>
<path id="Rectangle 3_2" d="M3.5 4C3.5 2.067 5.067 0.5 7 0.5H51C52.933 0.5 54.5 2.067 54.5 4V4.3H3.5V4Z" stroke="#FA3F40"/>
<path id="Oval 5" fill-rule="evenodd" clip-rule="evenodd" d="M29 46.08C35.0751 46.08 40 41.3521 40 35.52C40 29.6878 35.0751 24.96 29 24.96C22.9249 24.96 18 29.6878 18 35.52C18 41.3521 22.9249 46.08 29 46.08Z" fill="#F4F4F4" stroke="#FA3F40" stroke-width="2"/>
<path id="Line" d="M22.5 39.84H35.5" stroke="#FA3F40" stroke-linecap="round"/>
<rect id="Rectangle 4" x="22.5" y="31.22" width="13" height="6.68" rx="0.5" stroke="#FA3F40"/>
<path id="Oval 9" fill-rule="evenodd" clip-rule="evenodd" d="M47 17.2799C48.1046 17.2799 49 16.4203 49 15.3599C49 14.2996 48.1046 13.4399 47 13.4399C45.8954 13.4399 45 14.2996 45 15.3599C45 16.4203 45.8954 17.2799 47 17.2799Z" fill="#FA3F40"/>
<path id="Rectangle 5" d="M42.5 14.5601C42.5 12.6271 44.067 11.0601 46 11.0601H57.5V19.6601H46C44.067 19.6601 42.5 18.0931 42.5 16.1601V14.5601Z" stroke="#FA3F40"/>
</g>
</g>
</svg>
