<svg width="19" height="24" viewBox="0 0 19 24" fill="none" xmlns="http://www.w3.org/2000/svg">
<g id="icn 11">
<path id="Oval 7" fill-rule="evenodd" clip-rule="evenodd" d="M5 20C7.76142 20 10 17.7614 10 15C10 12.2386 7.76142 10 5 10C2.23858 10 0 12.2386 0 15C0 17.7614 2.23858 20 5 20Z" fill="#FA3F40"/>
<path id="Shape" fill-rule="evenodd" clip-rule="evenodd" d="M7.80623 23.0255C7.28273 23.0291 6.76451 22.9207 6.28639 22.7074C6.11816 22.6312 5.95622 22.5417 5.80207 22.44L4.50316 21.4519C4.02773 21.0938 3.8668 20.4523 4.11686 19.9122L5.71847 16.427C6.03021 15.748 6.69435 15.4055 7.23379 15.6477L9.02154 16.4528C9.97573 16.8833 11.3636 15.9725 12.0558 14.4667L13.535 11.2472C13.9629 10.4064 14.0511 9.4332 13.7812 8.52918C13.6605 8.16384 13.3995 7.86151 13.0556 7.68884C13.0452 7.68387 13.0348 7.6789 13.0249 7.67348L11.2683 6.88283C11.0422 6.77768 10.8679 6.58606 10.7844 6.35107C10.662 5.98214 10.6895 5.57983 10.8612 5.23107L12.4629 1.74592C12.7102 1.20535 13.2976 0.90668 13.8801 1.02531L15.4537 1.3375C15.4646 1.33931 15.475 1.34202 15.4854 1.34473C15.6641 1.39275 15.8388 1.455 16.0076 1.53087C17.0211 2.03066 17.7892 2.91933 18.137 3.99451C19.1323 6.65061 18.6281 10.7439 16.8213 14.6772C14.5041 19.7211 10.8143 23.0255 7.80623 23.0255ZM6.8543 16.4917C6.71789 16.5566 6.61197 16.6719 6.55883 16.8133L4.95766 20.298C4.89035 20.4452 4.93474 20.6194 5.06429 20.7164L6.33608 21.6855C6.44192 21.7525 6.55227 21.8122 6.66634 21.8639C9.28359 23.0409 13.5522 19.5761 15.9805 14.291C17.6879 10.5736 18.1826 6.75276 17.2704 4.31894C17.0108 3.47382 16.4172 2.77141 15.6272 2.37442C15.5075 2.32067 15.3838 2.27626 15.2572 2.24159L13.7003 1.93255C13.5379 1.89924 13.3739 1.98163 13.3037 2.13179L11.7025 5.61693C11.6258 5.74785 11.6111 5.90602 11.6623 6.04885L13.4351 6.84355C13.4469 6.84897 13.4582 6.85484 13.4695 6.86072C14.0247 7.13475 14.4483 7.61805 14.6473 8.20436C15.003 9.33957 14.9057 10.5684 14.3758 11.6335L12.8961 14.8534C11.9659 16.8788 10.0936 17.9505 8.64203 17.2968L6.8543 16.4917Z" fill="#030303"/>
</g>
</svg>
