<svg width="60" height="50" viewBox="0 0 60 50" fill="none" xmlns="http://www.w3.org/2000/svg">
<g id="icn 9">
<g id="6">
<path id="Rectangle 10" d="M39.8251 39C40.0872 39 40.3388 39.1029 40.5258 39.2866L49.0057 47.616V40C49.0057 39.4477 49.4535 39 50.0057 39H55.1238C56.7681 39 58.1059 37.6765 58.1236 36.0323L58.3607 14.0323C58.3787 12.3629 57.0303 11 55.3608 11H23.7196C22.0628 11 20.7196 12.3431 20.7196 14V36C20.7196 37.6569 22.0628 39 23.7196 39H39.8251Z" stroke="#030303" stroke-width="2" stroke-linecap="round" stroke-linejoin="round"/>
<path id="Path" fill-rule="evenodd" clip-rule="evenodd" d="M50 29.375C50 29.1679 49.9435 29 49.8759 29H46.1241C46.0556 29 46 29.174 46 29.375L-nan -nanL46 29.375C46 29.5821 46.0565 29.75 46.1241 29.75H49.8759C49.9444 29.75 50 29.576 50 29.375Z" fill="white"/>
<path id="Path_2" fill-rule="evenodd" clip-rule="evenodd" d="M50 24.375C50 24.1679 49.9402 24 49.8611 24H42.1389C42.0622 24 42 24.174 42 24.375L-nan -nanL42 24.375C42 24.5821 42.0598 24.75 42.1389 24.75H49.8611C49.9378 24.75 50 24.576 50 24.375Z" fill="white"/>
<path id="Path_3" fill-rule="evenodd" clip-rule="evenodd" d="M50 19.375C50 19.1679 49.9402 19 49.8611 19H42.1389C42.0622 19 42 19.174 42 19.375L-nan -nanL42 19.375C42 19.5821 42.0598 19.75 42.1389 19.75H49.8611C49.9378 19.75 50 19.576 50 19.375Z" fill="white"/>
<path id="Rectangle 10_2" fill-rule="evenodd" clip-rule="evenodd" d="M0.720315 4.04309C0.696332 1.81723 2.49409 0 4.72008 0H36.3613C38.5705 0 40.3613 1.79086 40.3613 4V26C40.3613 28.2091 38.5705 30 36.3613 30H20.2559L10.0752 40V30H4.95713C2.7648 30 0.980979 28.2353 0.957359 26.0431L0.720315 4.04309Z" fill="white"/>
<rect id="Path_4" x="9" y="20" width="12" height="1" rx="0.5" fill="#030303"/>
<rect id="Path_5" x="9" y="15" width="22" height="1" rx="0.5" fill="#030303"/>
<rect id="Path_6" x="9" y="10" width="22" height="1" rx="0.5" fill="#030303"/>
</g>
</g>
</svg>
