<svg width="20" height="23" viewBox="0 0 20 23" fill="none" xmlns="http://www.w3.org/2000/svg">
<g id="icn 12">
<path id="Oval 7" fill-rule="evenodd" clip-rule="evenodd" d="M5 19.0005C7.76142 19.0005 10 16.7619 10 14.0005C10 11.2391 7.76142 9.00049 5 9.00049C2.23858 9.00049 0 11.2391 0 14.0005C0 16.7619 2.23858 19.0005 5 19.0005Z" fill="#FA3F40"/>
<path id="Oval 8" fill-rule="evenodd" clip-rule="evenodd" d="M11 13C13.2091 13 15 11.2091 15 9C15 6.79086 13.2091 5 11 5C8.79086 5 7 6.79086 7 9C7 11.2091 8.79086 13 11 13Z" stroke="white"/>
<path id="Oval 8_2" fill-rule="evenodd" clip-rule="evenodd" d="M11 22.0259C11 22.0259 19 13.4183 19 9C19 4.58172 15.4183 1 11 1C6.58172 1 3 4.58172 3 9C3 13.4183 11 22.0259 11 22.0259Z" stroke="white"/>
</g>
</svg>
