<svg width="60" height="61" viewBox="0 0 60 61" fill="none" xmlns="http://www.w3.org/2000/svg">
<g id="icn 4">
<g id="1 ">
<rect id="Rectangle 5 Copy 8" x="44.75" y="36.5" width="1" height="1" rx="0.5" stroke="#030303"/>
<rect id="Rectangle 5 Copy 9" x="44.75" y="42.5" width="1" height="1" rx="0.5" stroke="#030303"/>
<rect id="Rectangle 5 Copy 11" x="37.25" y="36.5" width="1" height="1" rx="0.5" stroke="#030303"/>
<rect id="Rectangle 5 Copy 12" x="37.25" y="42.5" width="1" height="1" rx="0.5" stroke="#030303"/>
<rect id="Rectangle 5 Copy 13" x="29.75" y="36.5" width="1" height="1" rx="0.5" stroke="#030303"/>
<rect id="Rectangle 5 Copy 14" x="29.75" y="42.5" width="1" height="1" rx="0.5" stroke="#030303"/>
<rect id="Rectangle 5 Copy 15" x="22.25" y="36.5" width="1" height="1" rx="0.5" stroke="#030303"/>
<rect id="Rectangle 5 Copy 16" x="22.25" y="42.5" width="1" height="1" rx="0.5" stroke="#030303"/>
<rect id="Rectangle 5 Copy 17" x="14.75" y="36.5" width="1" height="1" rx="0.5" stroke="#030303"/>
<rect id="Rectangle 5 Copy 18" x="14.75" y="42.5" width="1" height="1" rx="0.5" stroke="#030303"/>
<rect id="Rectangle 5 Copy 19" x="44.75" y="48.5" width="1" height="1" rx="0.5" stroke="#030303"/>
<rect id="Rectangle 5 Copy 20" x="22.25" y="48.5" width="17" height="2" rx="0.5" stroke="#030303"/>
<rect id="Rectangle 5 Copy 21" x="14.75" y="48.5" width="1" height="1" rx="0.5" stroke="#030303"/>
<path id="Rectangle 3 Copy" fill-rule="evenodd" clip-rule="evenodd" d="M12.75 2.75C12.75 1.64543 13.6357 0.75 14.7403 0.75C21.127 0.75 40.7586 0.75 41.9454 0.75C43.1721 0.75 44.9575 1.91249 45.4183 2.2272C45.494 2.27886 45.5627 2.33572 45.6278 2.40015C45.9919 2.7604 47.25 4.0541 47.25 4.73145C47.25 14.0016 47.25 23.25 47.25 23.25H12.75V2.75Z" fill="white"/>
<path id="Rectangle Copy" d="M58.9 55.75C58.4367 58.0322 56.419 59.75 54 59.75H6C3.58104 59.75 1.56329 58.0322 1.10002 55.75H58.9Z" stroke="#030303" stroke-width="2"/>
<path id="Line Copy" d="M6.75 54.75V32.25" stroke="#030303" stroke-width="2" stroke-linecap="square"/>
<path id="Line Copy 3" d="M53.25 54.75V32.25" stroke="#030303" stroke-width="2" stroke-linecap="square"/>
<rect id="Rectangle 2 Copy" x="10.25" y="23.75" width="39.5" height="8.75" rx="1.5" stroke="#030303"/>
<path id="Line Copy 4" d="M6.75 30.75H9" stroke="#030303" stroke-width="2" stroke-linecap="square"/>
<path id="Line Copy 5" d="M50.25 30.75H53.25" stroke="#030303" stroke-width="2" stroke-linecap="square"/>
<path id="Path 2 Copy" d="M42.024 0.724854V5.29352H47.2581" stroke="#030303"/>
<rect id="Rectangle 4 Copy 2" x="18.75" y="8.25" width="22.5" height="1" rx="0.5" fill="#030303"/>
<rect id="Rectangle 4 Copy 3" x="18.75" y="12.75" width="22.5" height="1" rx="0.5" fill="#030303"/>
<rect id="Rectangle 4 Copy 4" x="18.75" y="17.25" width="22.5" height="1" rx="0.5" fill="#030303"/>
</g>
</g>
</svg>
