<svg width="67" height="50" viewBox="0 0 67 50" fill="none" xmlns="http://www.w3.org/2000/svg">
<g id="icn 1">
<g id="icn">
<path id="Line Copy 2" d="M39.8955 17.1632H45.806" stroke="#FA3F40" stroke-linecap="round"/>
<path id="Line Copy 2_2" d="M9.3582 17.1632H15.2686" stroke="#FA3F40" stroke-linecap="round"/>
<path id="Line Copy 2_3" d="M24.6269 17.1632H30.5373" stroke="#FA3F40" stroke-linecap="round"/>
<path id="Line Copy 2_4" d="M39.8955 22.0612H45.806" stroke="#FA3F40" stroke-linecap="round"/>
<path id="Line Copy 2_5" d="M9.3582 22.0612H15.2686" stroke="#FA3F40" stroke-linecap="round"/>
<path id="Line Copy 2_6" d="M24.6269 22.0611H30.5373" stroke="#FA3F40" stroke-linecap="round"/>
<path id="Line Copy 2_7" d="M9.3582 26.9591H15.2686" stroke="#FA3F40" stroke-linecap="round"/>
<path id="Line Copy 2_8" d="M24.6269 26.9591H30.5373" stroke="#FA3F40" stroke-linecap="round"/>
<path id="Line Copy 2_9" d="M9.3582 32.8367H15.2686" stroke="#FA3F40" stroke-linecap="round"/>
<path id="Line Copy 2_10" d="M24.6269 32.8366H30.5373" stroke="#FA3F40" stroke-linecap="round"/>
<rect id="Rectangle 7" x="1" y="5.91833" width="53.1642" height="37.1837" rx="3" stroke="#FA3F40" stroke-width="2"/>
<path id="Line" d="M9.85074 1.48975V10.3061" stroke="#FA3F40" stroke-width="2" stroke-linecap="round"/>
<path id="Line_2" d="M45.3134 1.48975V10.3061" stroke="#FA3F40" stroke-width="2" stroke-linecap="round"/>
<path id="Oval 11" fill-rule="evenodd" clip-rule="evenodd" d="M54.1791 48.0204C60.1636 48.0204 65.0149 43.196 65.0149 37.2449C65.0149 31.2937 60.1636 26.4694 54.1791 26.4694C48.1947 26.4694 43.3433 31.2937 43.3433 37.2449C43.3433 43.196 48.1947 48.0204 54.1791 48.0204Z" fill="white" stroke="#FA3F40" stroke-width="2"/>
<path id="Path 2" d="M48.3196 36.8563L53.0344 41.2421L60.1405 33.4054" stroke="#FA3F40" stroke-linecap="round" stroke-linejoin="round"/>
</g>
</g>
</svg>
