<svg width="171" height="37" viewBox="0 0 171 37" fill="none" xmlns="http://www.w3.org/2000/svg">
<g id="logo">
<g id="logo_2">
<path id="Fill 1" fill-rule="evenodd" clip-rule="evenodd" d="M8.11685 32.3141L11.7275 29.8971C11.7275 29.8971 14.0442 33.4487 12.4359 34.484C10.8269 35.5193 8.11685 32.3141 8.11685 32.3141Z" fill="#4F5D75"/>
<path id="Fill 3" fill-rule="evenodd" clip-rule="evenodd" d="M3.11811 17.4356L17.4848 7.81993L16.3509 6.20004L5.46178 13.268C5.46178 13.268 3.06219 9.84024 1.17555 11.1037C-0.712368 12.3672 3.11811 17.4356 3.11811 17.4356Z" fill="#4F5D75"/>
<path id="Fill 5" fill-rule="evenodd" clip-rule="evenodd" d="M26.5774 24.3888C25.2584 25.2732 17.2059 30.6069 13.7103 32.9214C13.5889 31.4461 12.5758 29.862 12.3617 29.5427C12.3585 29.5376 12.3553 29.5332 12.3514 29.5282C12.3502 29.5263 12.3489 29.5244 12.3469 29.5225L2.46509 15.4206C2.03184 14.7895 0.629878 12.2871 1.68087 11.583C2.73185 10.8796 4.61592 13.1206 5.0646 13.7586C5.16166 13.8963 5.30951 13.9906 5.47792 14.0207C5.64569 14.0503 5.81797 14.0151 5.95938 13.9208L16.1826 7.0389L25.655 20.6072C25.6607 20.6153 26.2328 21.435 26.6031 22.3767C26.8866 23.0964 27.1122 24.0305 26.5774 24.3888ZM9.11299 32.4179L11.6129 30.7728C12.1522 31.7446 12.8901 33.4588 12.077 34.0032C11.3107 34.518 9.94928 33.3652 9.11299 32.4179ZM15.9672 1.96612C16.1768 1.82532 16.3992 1.78257 16.666 1.83286C17.4945 1.98687 18.4343 2.93542 18.9968 3.61808L5.73697 12.5435C5.45735 12.2016 5.04274 11.7364 4.55614 11.3127C4.11067 10.9249 3.69928 10.6552 3.32259 10.4767C6.76289 8.15969 14.5312 2.92851 15.9672 1.96612ZM27.8026 21.9253C27.379 20.8479 26.7426 19.9346 26.7169 19.8968L17.2426 6.32607L20.276 4.28376C20.5659 4.08827 20.6417 3.70042 20.4444 3.41441C20.2702 3.16109 18.6895 0.930826 16.9083 0.598298C16.3079 0.486408 15.7313 0.600813 15.2402 0.92894C13.3844 2.17293 0.952567 10.5465 0.952567 10.5465C-1.30175 12.0595 1.1152 15.711 1.40125 16.1265L10.9218 29.7118L7.81645 31.7559C7.67246 31.8509 7.57347 31.9998 7.54326 32.1677C7.5124 32.3355 7.5529 32.5084 7.65511 32.6467C7.90066 32.9767 9.76415 35.4012 11.6392 35.4006C12.032 35.4006 12.4247 35.2943 12.804 35.0404C12.8066 35.0391 12.8078 35.0366 12.8104 35.0353C12.8123 35.0341 12.8143 35.0341 12.8156 35.0328C12.9435 34.948 25.6164 26.5568 27.3044 25.426C27.9819 24.9715 28.6189 23.9959 27.8026 21.9253Z" fill="#4F5D75"/>
<path id="Fill 7" fill-rule="evenodd" clip-rule="evenodd" d="M7.73764 19.3595C7.63543 19.3595 7.53515 19.3117 7.47216 19.2224C7.37252 19.0797 7.40916 18.8836 7.55637 18.7855L16.9728 12.4826C17.1188 12.3852 17.3187 12.421 17.4202 12.5643C17.5199 12.7076 17.4826 12.9031 17.336 13.0012L7.91891 19.3048C7.86363 19.3419 7.80063 19.3595 7.73764 19.3595Z" fill="#4F5D75"/>
<path id="Fill 9" fill-rule="evenodd" clip-rule="evenodd" d="M9.63534 22.0712C9.53314 22.0712 9.43286 22.0234 9.36986 21.9341C9.27023 21.7914 9.30687 21.5953 9.45407 21.4973L18.8705 15.1943C19.0165 15.0975 19.2164 15.1333 19.3179 15.276C19.4176 15.4194 19.3803 15.6148 19.2337 15.7129L9.81661 22.0165C9.76133 22.0536 9.69834 22.0712 9.63534 22.0712Z" fill="#4F5D75"/>
<path id="Fill 11" fill-rule="evenodd" clip-rule="evenodd" d="M11.5336 24.7829C11.4314 24.7829 11.3311 24.7352 11.2688 24.6459C11.1685 24.5032 11.2052 24.3071 11.3524 24.209L16.696 20.6317C16.8426 20.5349 17.0425 20.5707 17.1428 20.714C17.243 20.8567 17.2057 21.0528 17.0592 21.1509L11.7149 24.7282C11.6596 24.7653 11.5966 24.7829 11.5336 24.7829Z" fill="#4F5D75"/>
<path id="Fill 13" fill-rule="evenodd" clip-rule="evenodd" d="M52.4874 10.4028C53.6451 11.7229 54.223 13.439 54.223 15.551V27.0921C54.223 27.2939 54.1459 27.4692 53.9923 27.6201C53.838 27.771 53.6574 27.8464 53.4517 27.8464C53.2209 27.8464 53.0338 27.771 52.8924 27.6201C52.751 27.4692 52.6809 27.2939 52.6809 27.0921V15.7019C52.6809 13.9921 52.2239 12.5904 51.3111 11.4966C50.3983 10.4028 49.0169 9.85596 47.1657 9.85596C46.0337 9.85596 44.9216 10.12 43.8289 10.648C42.7361 11.176 41.8426 11.8926 41.1483 12.7978C40.4541 13.703 40.107 14.6716 40.107 15.7019V27.0921C40.107 27.2939 40.0299 27.4692 39.8756 27.6201C39.722 27.771 39.5413 27.8464 39.3356 27.8464C39.1049 27.8464 38.9178 27.771 38.7764 27.6201C38.635 27.4692 38.5649 27.2939 38.5649 27.0921V9.78052C38.5649 9.57937 38.6414 9.40337 38.7957 9.2525C38.95 9.10164 39.1299 9.02621 39.3356 9.02621C39.567 9.02621 39.7535 9.10164 39.8949 9.2525C40.0363 9.40337 40.107 9.57937 40.107 9.78052V12.3075C40.8527 11.176 41.9004 10.2457 43.2503 9.51651C44.6002 8.78734 45.9565 8.42276 47.3193 8.42276C49.6083 8.42276 51.3304 9.08278 52.4874 10.4028Z" fill="#4F5D75"/>
<path id="Fill 15" fill-rule="evenodd" clip-rule="evenodd" d="M66.3655 10.6668C65.3756 11.1571 64.5013 11.8869 63.7428 12.8543C62.9837 13.823 62.4759 14.9984 62.2194 16.3807H76.4125V16.0413C76.284 14.7589 75.8655 13.6595 75.1591 12.7412C74.4513 11.8234 73.5778 11.1257 72.5364 10.6479C71.4944 10.1708 70.4081 9.93132 69.2774 9.93132C68.326 9.93132 67.3548 10.1765 66.3655 10.6668ZM77.6082 23.5279C77.7361 23.6662 77.801 23.8239 77.801 23.9993C77.801 24.1753 77.7489 24.3262 77.6467 24.4519C76.7976 25.5589 75.7434 26.464 74.4841 27.1674C73.2242 27.8715 71.8737 28.2235 70.4344 28.2235C68.506 28.2235 66.7955 27.8218 65.3049 27.0166C63.8129 26.212 62.6494 25.0686 61.8144 23.5844C60.9781 22.101 60.5609 20.3786 60.5609 18.4174C60.5609 16.4059 60.9659 14.6401 61.7752 13.1183C62.5858 11.5971 63.6586 10.4348 64.9963 9.6296C66.3327 8.82499 67.7597 8.42269 69.2774 8.42269C70.7944 8.42269 72.2015 8.74328 73.5006 9.38444C74.7985 10.0256 75.8597 10.9874 76.6825 12.2697C77.5047 13.552 77.9418 15.1361 77.9938 17.0219C77.9938 17.2237 77.9167 17.4053 77.7618 17.5688C77.6082 17.7328 77.4282 17.8139 77.2225 17.8139H62.0651V18.3042C62.0651 19.8638 62.3865 21.2901 63.0293 22.585C63.6721 23.8805 64.6228 24.9045 65.8834 25.6588C67.1426 26.4131 68.6603 26.7903 70.4344 26.7903C71.6686 26.7903 72.8321 26.4948 73.9249 25.904C75.0177 25.3137 75.8726 24.5651 76.4897 23.6599C76.669 23.4336 76.8876 23.3204 77.1453 23.3204C77.3247 23.3204 77.479 23.3902 77.6082 23.5279Z" fill="#4F5D75"/>
<path id="Fill 17" fill-rule="evenodd" clip-rule="evenodd" d="M97.6376 26.7902C97.7398 26.9166 97.7913 27.0674 97.7913 27.2428C97.7913 27.4446 97.7205 27.62 97.5798 27.7708C97.4377 27.9217 97.2642 27.9971 97.0591 27.9971C96.827 27.9971 96.6085 27.884 96.4034 27.6577L90.0776 19.5865L83.7144 27.6954C83.5602 27.8966 83.3538 27.9971 83.0974 27.9971C82.8917 27.9971 82.7175 27.9343 82.576 27.8085C82.4353 27.6828 82.3639 27.5068 82.3639 27.2805C82.3639 27.1051 82.4153 26.9543 82.5182 26.8279L89.1526 18.4173L82.441 9.85583C82.3382 9.73011 82.2874 9.57987 82.2874 9.40324C82.2874 9.17694 82.3703 8.98836 82.5381 8.8375C82.7052 8.68664 82.8917 8.61121 83.0974 8.61121C83.3538 8.61121 83.5602 8.72435 83.7144 8.95065L90.1168 17.135L96.4034 8.95065C96.6085 8.72435 96.827 8.61121 97.0591 8.61121C97.2905 8.61121 97.4699 8.67469 97.5984 8.79979C97.7276 8.92613 97.7913 9.077 97.7913 9.25237C97.7913 9.40324 97.7276 9.5673 97.5984 9.74268L91.0418 18.3419L97.6376 26.7902Z" fill="#4F5D75"/>
<path id="Fill 19" fill-rule="evenodd" clip-rule="evenodd" d="M134.463 10.6668C133.473 11.1571 132.599 11.8869 131.84 12.8543C131.081 13.823 130.573 14.9984 130.317 16.3807H144.51V16.0413C144.381 14.7589 143.963 13.6595 143.256 12.7412C142.549 11.8234 141.675 11.1257 140.634 10.6479C139.592 10.1708 138.505 9.93132 137.375 9.93132C136.423 9.93132 135.452 10.1765 134.463 10.6668ZM145.705 23.5279C145.833 23.6662 145.898 23.8239 145.898 23.9993C145.898 24.1753 145.846 24.3262 145.744 24.4519C144.895 25.5589 143.841 26.464 142.581 27.1674C141.322 27.8715 139.971 28.2235 138.532 28.2235C136.603 28.2235 134.893 27.8218 133.402 27.0166C131.91 26.212 130.747 25.0686 129.912 23.5844C129.075 22.101 128.658 20.3786 128.658 18.4174C128.658 16.4059 129.063 14.6401 129.872 13.1183C130.683 11.5971 131.756 10.4348 133.094 9.6296C134.43 8.82499 135.857 8.42269 137.375 8.42269C138.892 8.42269 140.299 8.74328 141.598 9.38444C142.896 10.0256 143.957 10.9874 144.78 12.2697C145.602 13.552 146.039 15.1361 146.091 17.0219C146.091 17.2237 146.014 17.4053 145.859 17.5688C145.705 17.7328 145.525 17.8139 145.32 17.8139H130.162V18.3042C130.162 19.8638 130.484 21.2901 131.127 22.585C131.769 23.8805 132.72 24.9045 133.981 25.6588C135.24 26.4131 136.758 26.7903 138.532 26.7903C139.766 26.7903 140.929 26.4948 142.022 25.904C143.115 25.3137 143.97 24.5651 144.587 23.6599C144.766 23.4336 144.985 23.3204 145.243 23.3204C145.422 23.3204 145.576 23.3902 145.705 23.5279Z" fill="#4F5D75"/>
<g id="Group 23">
<mask id="mask0" mask-type="alpha" maskUnits="userSpaceOnUse" x="152" y="8" width="19" height="28">
<path id="Clip 22" fill-rule="evenodd" clip-rule="evenodd" d="M170.324 35.3895V8.79985L152.429 8.79985V35.3895H170.324Z" fill="white"/>
</mask>
<g mask="url(#mask0)">
<path id="Fill 21" fill-rule="evenodd" clip-rule="evenodd" d="M165.117 25.5834C166.249 24.88 167.142 23.8994 167.798 22.6415C168.453 21.3844 168.781 19.9769 168.781 18.4174C168.781 16.8591 168.453 15.4567 167.798 14.2121C167.142 12.9674 166.249 11.9931 165.117 11.2891C163.985 10.5857 162.713 10.2331 161.3 10.2331C159.858 10.2331 158.567 10.5788 157.423 11.2702C156.279 11.9623 155.392 12.9297 154.762 14.1744C154.131 15.419 153.817 16.8333 153.817 18.4174C153.817 20.0014 154.131 21.4158 154.762 22.6604C155.392 23.905 156.279 24.88 157.423 25.5834C158.567 26.288 159.858 26.6394 161.3 26.6394C162.713 26.6394 163.985 26.288 165.117 25.5834ZM165.966 10.0445C167.328 10.8742 168.396 12.0189 169.167 13.4766C169.938 14.9356 170.325 16.5825 170.325 18.4174C170.325 20.2277 169.932 21.8684 169.148 23.3393C168.363 24.8102 167.29 25.9668 165.928 26.8091C164.564 27.6521 163.047 28.0726 161.377 28.0726C159.833 28.0726 158.419 27.6955 157.134 26.9411C155.848 26.1868 154.794 25.1182 153.971 23.7353V34.6352C153.971 34.8363 153.9 35.0123 153.759 35.1632C153.617 35.3141 153.431 35.3895 153.2 35.3895C152.994 35.3895 152.814 35.3141 152.66 35.1632C152.505 35.0123 152.429 34.8363 152.429 34.6352V9.55417C152.429 9.35302 152.499 9.17701 152.64 9.02615C152.782 8.87528 152.969 8.79985 153.2 8.79985C153.431 8.79985 153.617 8.87528 153.759 9.02615C153.9 9.17701 153.971 9.35302 153.971 9.55417V13.024C154.742 11.5908 155.771 10.5291 157.056 9.83703C158.342 9.14621 159.781 8.79985 161.377 8.79985C163.073 8.79985 164.602 9.21472 165.966 10.0445Z" fill="#4F5D75"/>
</g>
</g>
<path id="Fill 24" fill-rule="evenodd" clip-rule="evenodd" d="M116.862 25.7599C117.993 25.0307 118.881 24.0187 119.523 22.7238C120.166 21.4289 120.488 19.9768 120.488 18.3676C120.488 16.759 120.166 15.3126 119.523 14.0303C118.881 12.7479 117.986 11.7428 116.843 11.013C115.698 10.2838 114.419 9.91926 113.005 9.91926C111.617 9.91926 110.35 10.2838 109.206 11.013C108.062 11.7428 107.162 12.7542 106.507 14.0491C105.851 15.3447 105.523 16.7835 105.523 18.3676C105.523 19.9768 105.851 21.4226 106.507 22.7049C107.162 23.9872 108.056 24.9999 109.188 25.741C110.318 26.4828 111.591 26.8536 113.005 26.8536C114.445 26.8536 115.73 26.4897 116.862 25.7599ZM121.664 0.226295C121.805 0.377158 121.876 0.553165 121.876 0.754316V27.1554C121.876 27.3572 121.799 27.5325 121.645 27.6834C121.49 27.8343 121.31 27.9097 121.105 27.9097C120.873 27.9097 120.686 27.8343 120.545 27.6834C120.404 27.5325 120.333 27.3572 120.333 27.1554V23.5724C119.716 24.9056 118.739 26.0239 117.402 26.9291C116.065 27.8343 114.573 28.2868 112.928 28.2868C111.256 28.2868 109.74 27.8531 108.377 26.9857C107.014 26.1182 105.941 24.9301 105.157 23.4215C104.372 21.9129 103.98 20.2289 103.98 18.3676C103.98 16.5069 104.372 14.8223 105.157 13.3137C105.941 11.805 107.014 10.6233 108.377 9.76839C109.74 8.91413 111.256 8.48605 112.928 8.48605C114.522 8.48605 116 8.92607 117.364 9.80611C118.726 10.6868 119.716 11.8302 120.333 13.2382V0.754316C120.333 0.553165 120.404 0.377158 120.545 0.226295C120.686 0.0754316 120.873 0 121.105 0C121.336 0 121.522 0.0754316 121.664 0.226295Z" fill="#4F5D75"/>
</g>
</g>
</svg>
