<?xml version="1.0" encoding="utf-8"?>
<svg id="master-artboard" viewBox="0 0 1400 980" version="1.1" xmlns="http://www.w3.org/2000/svg" x="0px" y="0px" style="enable-background:new 0 0 1400 980;" width="1400px" height="980px"><defs><style id="ee-google-fonts">@import url(https://fonts.googleapis.com/css?family=Fjalla+One:400|Roboto:100,100italic,300,300italic,400,400italic,500,500italic,700,700italic,900,900italic);</style></defs>











































<g transform="matrix(0.9999999999999999, 0, 0, 0.9999999999999999, 1.8189894035458565e-12, 4.547473508864641e-13)">
		<path class="st13" d="M448.4,599.9" style="fill: rgb(223, 243, 251);"/>
	</g>





















































<g transform="matrix(40.632232666015625, 0, 0, 40.632232666015625, 218.60452516906793, 407.33966358337136)"><path fill-rule="evenodd" clip-rule="evenodd" d="M5 10.0005C7.76142 10.0005 10 7.76191 10 5.00049C10 2.23906 7.76142 0.000488281 5 0.000488281C2.23858 0.000488281 0 2.23906 0 5.00049C0 7.76191 2.23858 10.0005 5 10.0005Z" fill="#FA3F40"/></g><g transform="matrix(42.608695652173914, 0, 0, 42.608695652173914, 380.43477385505923, 0)"><path fill-rule="evenodd" clip-rule="evenodd" d="M3.80623 22.026C3.28273 22.0296 2.76451 21.9212 2.28639 21.7079C2.11816 21.6317 1.95622 21.5422 1.80207 21.4405L0.503159 20.4524C0.027731 20.0943 -0.133198 19.4528 0.116857 18.9127L1.71847 15.4275C2.03021 14.7485 2.69435 14.406 3.23379 14.6482L5.02154 15.4533C5.97573 15.8838 7.36365 14.973 8.05579 13.4672L9.53497 10.2477C9.9629 9.40688 10.0511 8.43371 9.7812 7.52969C9.66051 7.16435 9.39946 6.86202 9.05562 6.68935C9.04523 6.68438 7.26832 5.88334 7.26832 5.88334C7.04221 5.77819 6.86786 5.58658 6.78445 5.35158C6.66195 4.98265 6.68954 4.58034 6.86124 4.23158L8.46286 0.746435C8.71021 0.205857 9.29761 -0.0928087 9.88014 0.0258209L11.4537 0.338014C11.6641 0.393264 11.8388 0.455508 12.0076 0.531382C13.0211 1.03117 13.7892 1.91984 14.137 2.99502C15.1323 5.65112 14.6281 9.74438 12.8213 13.6777C10.5041 18.7216 6.81428 22.026 3.80623 22.026ZM2.8543 15.4922C2.71789 15.5571 2.61197 15.6724 2.55883 15.8138L0.957664 19.2985C0.89035 19.4457 0.934744 19.6199 1.06429 19.7169L2.33608 20.686C2.44192 20.753 2.55227 20.8127 2.66634 20.8645C5.28359 22.0414 9.55215 18.5766 11.9805 13.2915C13.6879 9.5741 14.1826 5.75327 13.2704 3.31945C13.0108 2.47433 12.4172 1.77192 11.6272 1.37493C11.5075 1.32118 11.3838 1.27677 11.2572 1.2421L9.70034 0.933059C9.53795 0.899747 9.3739 0.982143 9.30366 1.1323L7.7025 4.61744C7.62582 4.74836 7.61109 4.90653 7.66229 5.04936L9.43512 5.84406C10.0247 6.13526 10.4483 6.61856 10.6473 7.20487C11.003 8.34008 10.9057 9.56892 10.3758 10.634L8.89613 13.854C7.96589 15.8794 6.09365 16.951 4.64203 16.2973L2.8543 15.4922Z" fill="white"/></g></svg>